# xmcd
#
# Track frame offsets:
#	150
#	34953
#	54618
#	94077
#	116126
#	139991
#	170076
#	189027
#
# Disc length: 3295 seconds
#
# Revision: 1
# Processed by: cddbd v1.4PL0 Copyright (c) Steve Scherf et al.
# Submitted via: audiograbber 1.82.02
#
DISCID=700cdd08
DTITLE=Minuit Guibolles - Ayé NA Donké
DYEAR=2002
DGENRE=
TTITLE0=Les sangliers sont lachés: Mrs Heidi Hendy (A. Cutting) - Atuxureira (P
TTITLE0=Vaamonde Manteiga) - La tarentelle du pyjama (S. Roux and F. Mounier) >
TTITLE0=cercles circassiens
TTITLE1=Recto verso (F. P.) > bourrée à 3 temps
TTITLE2=De Caraibes en Scylla (B. T.) - Defaillance majeure (B.T.) > hanterdro
TTITLE3=Saint Vincent tournante (B.T) > rond de Saint Vincent
TTITLE4=Jour de pluie (F. P.) > valse
TTITLE5=Larry d. 8 ans (Trad) > laridé 8 temps
TTITLE6=Entourloupe (B.T) - Fausse facture (B.T) > andro
TTITLE7=Ayé na donké: Bourrée motrice (B.T.) - La Cubanissima (F.P.) - Flowers 
TTITLE7=in your head (B.T.) > bourrée 2 temps
EXTD=
EXTT0=
EXTT1=
EXTT2=
EXTT3=
EXTT4=
EXTT5=
EXTT6=
EXTT7=
PLAYORDER=
